<svg xmlns="http://www.w3.org/2000/svg" xmlns:xlink="http://www.w3.org/1999/xlink" width="100" height="100" viewBox="0 0 100 100"><g><g transform="translate(50 50) scale(0.69 0.69) rotate(0) translate(-50 -50)" style="fill:#000000"><svg fill="#000000" xmlns="http://www.w3.org/2000/svg" xmlns:xlink="http://www.w3.org/1999/xlink" version="1.1" x="0px" y="0px" viewBox="0 0 100 100" enable-background="new 0 0 100 100" xml:space="preserve"><polygon fill="#000000" points="81.338,34.664 82.148,33.832 81.824,33.143 "></polygon><polygon fill="#000000" points="87.555,39.068 97.101,19.84 84.147,37.111 "></polygon><polygon fill="#000000" points="82.57,33.787 82.57,33.789 82.572,33.791 83.896,36.779 96.9,19.44 82.033,32.647 "></polygon><path fill="#000000" d="M81.599,32.537c0.001-0.002,0.002-0.002,0.003-0.003c0.006-0.017,0.022-0.026,0.033-0.041  c0.01-0.015,0.008-0.033,0.021-0.045L95.1,20.506L77.473,33.287l3.301,1.83L81.599,32.537z"></path><path fill="#000000" d="M78.521,38.273c0.131-0.143,0.123-0.363-0.02-0.495c-0.141-0.13-0.361-0.122-0.494,0.019l-1.021,1.1  c-0.132,0.142-0.124,0.363,0.019,0.495c0.066,0.062,0.152,0.093,0.238,0.093c0.094,0,0.188-0.037,0.256-0.111L78.521,38.273z"></path><path fill="#000000" d="M41.591,32.005c0.032,0,0.065-0.004,0.098-0.014c0.186-0.054,0.292-0.248,0.238-0.434  c-0.267-0.916-0.674-1.932-1.146-2.86c-0.088-0.173-0.297-0.241-0.471-0.153c-0.172,0.087-0.241,0.298-0.153,0.47  c0.454,0.892,0.844,1.864,1.099,2.739C41.299,31.906,41.439,32.005,41.591,32.005z"></path><path fill="#000000" d="M32.99,50.599c0.111,0,0.221-0.053,0.289-0.151c0.11-0.159,0.07-0.377-0.089-0.486  c-0.833-0.573-1.63-1.183-2.37-1.811c-0.148-0.126-0.369-0.107-0.494,0.04s-0.107,0.368,0.041,0.493  c0.758,0.644,1.574,1.268,2.426,1.854C32.853,50.579,32.921,50.599,32.99,50.599z"></path><path fill="#000000" d="M27.361,65.396c0.191-0.007,0.384-0.011,0.573-0.011c0.718,0.01,1.498,0.065,2.384,0.169  c0.014,0.002,0.027,0.002,0.041,0.002c0.175,0,0.326-0.131,0.347-0.309c0.022-0.192-0.115-0.366-0.307-0.389  c-0.91-0.106-1.713-0.163-2.46-0.173c-0.202,0-0.403,0.004-0.602,0.011c-0.193,0.007-0.344,0.169-0.337,0.362  C27.006,65.251,27.16,65.376,27.361,65.396z"></path><path fill="#000000" d="M53.915,46.652c-0.159,0.988-0.351,1.979-0.565,2.943c-0.043,0.188,0.076,0.376,0.266,0.418  c0.025,0.006,0.051,0.008,0.076,0.008c0.16,0,0.305-0.11,0.342-0.273c0.218-0.978,0.411-1.982,0.573-2.984  c0.03-0.19-0.099-0.37-0.29-0.401C54.131,46.336,53.945,46.462,53.915,46.652z"></path><path fill="#000000" d="M28.152,46.574c0.069,0.074,0.163,0.111,0.256,0.111c0.085,0,0.171-0.03,0.238-0.093  c0.142-0.132,0.15-0.354,0.018-0.495c-0.7-0.754-1.325-1.53-1.857-2.309c-0.109-0.16-0.326-0.201-0.487-0.092  c-0.16,0.109-0.2,0.327-0.091,0.486C26.782,44.991,27.429,45.795,28.152,46.574z"></path><path fill="#000000" d="M11.585,73.433c0.086,0,0.172-0.031,0.24-0.095c0.778-0.732,1.51-1.385,2.238-1.994  c0.148-0.124,0.168-0.345,0.044-0.493c-0.125-0.149-0.346-0.167-0.493-0.044c-0.738,0.618-1.48,1.28-2.268,2.021  c-0.141,0.133-0.147,0.354-0.015,0.495C11.399,73.396,11.492,73.433,11.585,73.433z"></path><path fill="#000000" d="M33.287,65.993l0.521,0.086c0.826,0.137,1.65,0.273,2.468,0.388c0.017,0.002,0.033,0.003,0.049,0.003  c0.172,0,0.322-0.126,0.346-0.301c0.027-0.192-0.107-0.369-0.298-0.396c-0.812-0.113-1.631-0.249-2.45-0.385L33.4,65.302  c-0.187-0.029-0.37,0.098-0.402,0.289C32.967,65.781,33.096,65.961,33.287,65.993z"></path><path fill="#000000" d="M38.239,53.568c0.133,0,0.26-0.075,0.318-0.204c0.08-0.176,0.003-0.384-0.173-0.464  c-0.905-0.413-1.801-0.869-2.664-1.356c-0.168-0.095-0.381-0.035-0.477,0.133c-0.095,0.168-0.036,0.382,0.133,0.477  c0.879,0.497,1.793,0.962,2.716,1.384C38.141,53.559,38.19,53.568,38.239,53.568z"></path><path fill="#000000" d="M68.727,48.032c0.082,0,0.165-0.028,0.231-0.087c0.716-0.632,1.466-1.323,2.229-2.055  c0.14-0.134,0.144-0.355,0.011-0.495c-0.134-0.139-0.355-0.143-0.495-0.011c-0.756,0.726-1.499,1.41-2.207,2.035  c-0.146,0.128-0.159,0.35-0.03,0.494C68.533,47.992,68.63,48.032,68.727,48.032z"></path><path fill="#000000" d="M39.045,26.601c0.144-0.13,0.155-0.351,0.025-0.494l-0.113-0.123c-0.741-0.792-1.583-1.349-2.502-1.652  c-0.182-0.065-0.382,0.038-0.442,0.222c-0.061,0.184,0.039,0.382,0.222,0.442c0.806,0.268,1.55,0.761,2.211,1.467l0.104,0.113  c0.069,0.077,0.164,0.115,0.26,0.115C38.894,26.69,38.978,26.661,39.045,26.601z"></path><path fill="#000000" d="M63.98,51.752c0.066,0,0.135-0.02,0.195-0.06c0.8-0.541,1.625-1.146,2.453-1.798  c0.152-0.12,0.178-0.34,0.059-0.492c-0.119-0.151-0.34-0.175-0.491-0.059c-0.815,0.642-1.627,1.237-2.413,1.769  c-0.16,0.108-0.202,0.326-0.094,0.486C63.758,51.698,63.867,51.752,63.98,51.752z"></path><path fill="#000000" d="M51.11,58.386c0.085-0.174,0.013-0.384-0.161-0.468c-0.174-0.085-0.383-0.012-0.468,0.161  c-0.456,0.936-0.945,1.808-1.456,2.593c-0.105,0.162-0.06,0.379,0.103,0.483c0.059,0.039,0.125,0.057,0.19,0.057  c0.115,0,0.227-0.056,0.294-0.159C50.139,60.244,50.643,59.347,51.11,58.386z"></path><path fill="#000000" d="M46.533,55.771c-0.027,0.191,0.106,0.368,0.298,0.396c1.024,0.145,2.051,0.222,3.052,0.23  c0.001,0,0.002,0,0.003,0c0.192,0,0.348-0.154,0.35-0.347c0.001-0.193-0.154-0.352-0.347-0.353c-0.97-0.009-1.966-0.085-2.96-0.225  C46.733,55.454,46.56,55.58,46.533,55.771z"></path><path fill="#000000" d="M73.088,43.863c0.09,0,0.182-0.034,0.25-0.104c0.703-0.715,1.402-1.444,2.098-2.181  c0.133-0.14,0.127-0.361-0.014-0.494c-0.141-0.134-0.361-0.128-0.494,0.014c-0.693,0.732-1.389,1.458-2.09,2.171  c-0.135,0.138-0.133,0.359,0.005,0.495C72.91,43.83,73,43.863,73.088,43.863z"></path><path fill="#000000" d="M44.844,65.324c0.066,0.109,0.182,0.17,0.301,0.17c0.061,0,0.123-0.016,0.179-0.049  c0.83-0.495,1.638-1.156,2.4-1.964c0.133-0.141,0.126-0.362-0.014-0.495c-0.14-0.132-0.362-0.127-0.495,0.015  c-0.719,0.761-1.476,1.381-2.25,1.843C44.8,64.943,44.746,65.158,44.844,65.324z"></path><path fill="#000000" d="M41.914,25.337c-0.124-0.147-0.345-0.167-0.493-0.042c-0.893,0.752-1.558,1.574-1.974,2.444  c-0.083,0.175-0.01,0.384,0.164,0.467c0.049,0.023,0.101,0.034,0.151,0.034c0.131,0,0.256-0.073,0.316-0.198  c0.369-0.77,0.989-1.534,1.794-2.212C42.02,25.706,42.039,25.485,41.914,25.337z"></path><path fill="#000000" d="M44.006,54.897c-0.946-0.24-1.906-0.534-2.855-0.873c-0.184-0.066-0.382,0.03-0.447,0.213  c-0.065,0.182,0.03,0.382,0.212,0.447c0.969,0.346,1.951,0.646,2.917,0.891c0.029,0.008,0.058,0.011,0.087,0.011  c0.156,0,0.298-0.105,0.339-0.264C44.307,55.135,44.193,54.944,44.006,54.897z"></path><path fill="#000000" d="M50.173,23.694c-0.167-0.097-0.381-0.045-0.48,0.121c-0.099,0.166-0.045,0.381,0.121,0.48  c0.748,0.446,1.426,1.118,2.016,1.994c0.068,0.101,0.179,0.154,0.291,0.154c0.067,0,0.135-0.019,0.195-0.06  c0.16-0.107,0.203-0.325,0.096-0.485C51.764,24.937,51.01,24.195,50.173,23.694z"></path><path fill="#000000" d="M42.674,66.121c-0.037-0.189-0.221-0.312-0.41-0.277c-0.879,0.169-1.859,0.236-2.926,0.204  c-0.216,0.026-0.355,0.146-0.361,0.338c-0.006,0.193,0.145,0.355,0.338,0.361c0.185,0.006,0.368,0.009,0.551,0.009  c0.925-0.001,1.753-0.074,2.53-0.225C42.587,66.494,42.711,66.311,42.674,66.121z"></path><path fill="#000000" d="M54.656,44.065c0.178,0,0.33-0.134,0.348-0.314c0.104-1.017,0.178-2.036,0.221-3.029  c0.008-0.193-0.143-0.356-0.336-0.364c-0.18-0.019-0.355,0.141-0.363,0.335c-0.042,0.979-0.115,1.984-0.217,2.988  c-0.02,0.192,0.119,0.363,0.312,0.384C54.633,44.065,54.645,44.065,54.656,44.065z"></path><path fill="#000000" d="M53.784,28.672c-0.066-0.181-0.269-0.273-0.448-0.209c-0.182,0.066-0.275,0.268-0.209,0.449  c0.312,0.857,0.58,1.817,0.795,2.854c0.034,0.165,0.18,0.278,0.342,0.278c0.023,0,0.048-0.002,0.072-0.007  c0.189-0.039,0.311-0.225,0.271-0.414C54.387,30.555,54.109,29.562,53.784,28.672z"></path><path fill="#000000" d="M55.065,34.643c-0.021-0.192-0.202-0.329-0.384-0.312c-0.192,0.021-0.332,0.192-0.312,0.385  c0.098,0.954,0.16,1.959,0.185,2.983c0.005,0.19,0.161,0.342,0.351,0.342c0.002,0,0.005,0,0.008,0  c0.193-0.004,0.346-0.165,0.342-0.357C55.229,36.639,55.166,35.616,55.065,34.643z"></path><path fill="#000000" d="M7.351,77.729c0.094,0,0.187-0.037,0.256-0.111c0.688-0.739,1.379-1.466,2.076-2.177  c0.135-0.138,0.133-0.359-0.005-0.495c-0.138-0.135-0.36-0.132-0.495,0.005c-0.701,0.715-1.396,1.447-2.088,2.19  c-0.131,0.142-0.124,0.362,0.018,0.494C7.18,77.699,7.266,77.729,7.351,77.729z"></path><path fill="#000000" d="M24.07,35.822c0.014,0.002,0.028,0.002,0.042,0.002c0.175,0,0.326-0.131,0.347-0.309  c0.112-0.945,0.362-1.894,0.743-2.815c0.074-0.179-0.012-0.384-0.19-0.457c-0.179-0.078-0.383,0.011-0.458,0.189  c-0.405,0.981-0.671,1.991-0.791,3.001C23.741,35.625,23.878,35.8,24.07,35.822z"></path><path fill="#000000" d="M52.602,52.497c-0.287,0.98-0.605,1.936-0.945,2.839c-0.067,0.181,0.023,0.383,0.205,0.45  c0.041,0.016,0.082,0.022,0.123,0.022c0.142,0,0.275-0.086,0.328-0.227c0.346-0.919,0.669-1.891,0.961-2.888  c0.055-0.186-0.052-0.38-0.236-0.435C52.85,52.204,52.656,52.312,52.602,52.497z"></path><path fill="#000000" d="M21.611,66.628c0.938-0.371,1.889-0.662,2.825-0.865c0.189-0.041,0.309-0.227,0.268-0.416  c-0.042-0.189-0.232-0.313-0.417-0.268c-0.973,0.211-1.96,0.513-2.935,0.898c-0.18,0.071-0.268,0.274-0.197,0.454  c0.055,0.138,0.187,0.221,0.326,0.221C21.525,66.652,21.568,66.645,21.611,66.628z"></path><path fill="#000000" d="M55.754,54.937c-0.955,0.262-1.934,0.458-2.906,0.586c-0.191,0.024-0.326,0.2-0.301,0.392  c0.022,0.177,0.174,0.305,0.346,0.305c0.016,0,0.031-0.001,0.047-0.003c1.004-0.131,2.014-0.334,3-0.604  c0.186-0.051,0.296-0.244,0.244-0.43C56.133,54.995,55.94,54.888,55.754,54.937z"></path><path fill="#000000" d="M61.717,52.811c-0.094-0.17-0.307-0.228-0.476-0.138c-0.893,0.492-1.794,0.929-2.681,1.297  c-0.178,0.074-0.263,0.279-0.188,0.458c0.056,0.134,0.187,0.215,0.323,0.215c0.045,0,0.09-0.008,0.135-0.026  c0.909-0.378,1.834-0.825,2.749-1.33C61.748,53.192,61.811,52.979,61.717,52.811z"></path><path fill="#000000" d="M40.988,33.731c0.093,0,0.187-0.037,0.255-0.11c0.132-0.141,0.125-0.362-0.016-0.494  c-0.469-0.44-1.109-1.332-1.403-2.243l-0.042-0.148c-0.049-0.188-0.239-0.3-0.428-0.25c-0.187,0.05-0.298,0.241-0.249,0.428  l0.051,0.179c0.337,1.042,1.042,2.029,1.592,2.545C40.816,33.7,40.902,33.731,40.988,33.731z"></path><path fill="#000000" d="M25.051,41.707c0.047,0,0.094-0.009,0.139-0.028c0.177-0.077,0.259-0.283,0.182-0.461  c-0.403-0.929-0.686-1.87-0.841-2.798c-0.031-0.19-0.213-0.316-0.403-0.288c-0.19,0.032-0.319,0.213-0.288,0.403  c0.164,0.983,0.463,1.98,0.889,2.962C24.788,41.629,24.916,41.707,25.051,41.707z"></path><path fill="#000000" d="M30.604,26.078c0.063,0,0.127-0.017,0.184-0.053c0.896-0.557,1.79-0.937,2.655-1.129  c0.188-0.042,0.308-0.229,0.266-0.418s-0.229-0.309-0.418-0.266c-0.943,0.21-1.909,0.62-2.872,1.219  c-0.165,0.102-0.215,0.317-0.113,0.481C30.373,26.02,30.487,26.078,30.604,26.078z"></path><path fill="#000000" d="M47.126,23.612c0.193-0.005,0.346-0.166,0.34-0.359c-0.006-0.193-0.134-0.318-0.36-0.34  c-0.507,0.015-1.043,0.093-1.594,0.232c-0.475,0.125-0.963,0.297-1.45,0.512c-0.177,0.078-0.257,0.284-0.179,0.461  c0.058,0.132,0.186,0.209,0.32,0.209c0.047,0,0.095-0.009,0.141-0.029c0.454-0.199,0.906-0.359,1.343-0.475  C46.187,23.696,46.67,23.626,47.126,23.612z"></path><path fill="#000000" d="M16.424,69.51c0.841-0.598,1.687-1.137,2.511-1.601c0.168-0.095,0.229-0.308,0.134-0.477  c-0.095-0.167-0.308-0.229-0.477-0.133c-0.847,0.476-1.712,1.027-2.574,1.64c-0.158,0.112-0.195,0.33-0.083,0.488  c0.068,0.096,0.176,0.146,0.286,0.146C16.292,69.574,16.363,69.554,16.424,69.51z"></path><path fill="#000000" d="M26.316,30.27c0.112,0,0.222-0.053,0.289-0.152c0.558-0.814,1.194-1.575,1.89-2.261  c0.138-0.136,0.139-0.356,0.004-0.495c-0.137-0.138-0.357-0.139-0.495-0.003c-0.728,0.717-1.393,1.512-1.976,2.364  c-0.109,0.159-0.069,0.377,0.091,0.486C26.18,30.25,26.249,30.27,26.316,30.27z"></path><path fill="#000000" d="M4.239,81.135c0.095,0,0.19-0.038,0.26-0.115l1.006-1.11c0.13-0.143,0.12-0.364-0.023-0.494  c-0.144-0.133-0.365-0.121-0.494,0.023l-1.008,1.112c-0.129,0.144-0.118,0.364,0.025,0.494C4.071,81.105,4.155,81.135,4.239,81.135z  "></path></svg></g></g></svg>